<svg width="21" height="22" viewBox="0 0 21 22" fill="none" xmlns="http://www.w3.org/2000/svg">
<path d="M7.77441 16.0834V5.09768L17.9151 3.40756V14.3933" stroke="#EE6176" stroke-width="2" stroke-linecap="round" stroke-linejoin="round"/>
<path d="M5.23928 18.6186C6.63942 18.6186 7.77445 17.4836 7.77445 16.0834C7.77445 14.6833 6.63942 13.5482 5.23928 13.5482C3.83914 13.5482 2.7041 14.6833 2.7041 16.0834C2.7041 17.4836 3.83914 18.6186 5.23928 18.6186Z" stroke="#EE6176" stroke-width="2" stroke-linecap="round" stroke-linejoin="round"/>
<path d="M15.3799 16.9285C16.78 16.9285 17.9151 15.7934 17.9151 14.3933C17.9151 12.9932 16.78 11.8581 15.3799 11.8581C13.9798 11.8581 12.8447 12.9932 12.8447 14.3933C12.8447 15.7934 13.9798 16.9285 15.3799 16.9285Z" stroke="#EE6176" stroke-width="2" stroke-linecap="round" stroke-linejoin="round"/>
</svg>
